<?xml version="1.0" standalone="no"?>
<!DOCTYPE svg PUBLIC "-//W3C//DTD SVG 20010904//EN"
 "http://www.w3.org/TR/2001/REC-SVG-20010904/DTD/svg10.dtd">
<svg version="1.0" xmlns="http://www.w3.org/2000/svg"
 width="264.000000pt" height="264.000000pt" viewBox="0 0 264.000000 264.000000"
 preserveAspectRatio="xMidYMid meet">
<metadata>
Created by potrace 1.11, written by Peter Selinger 2001-2013
</metadata>
<g transform="translate(0.000000,264.000000) scale(0.100000,-0.100000)"
fill="#000000" stroke="none">
<path d="M1220 2617 c-3 -2 -32 -7 -65 -10 -59 -6 -68 -8 -130 -22 -61 -14
-212 -68 -270 -97 -570 -286 -848 -923 -670 -1533 29 -100 88 -232 134 -301
17 -25 31 -48 31 -51 0 -10 112 -146 160 -193 199 -198 471 -334 737 -368 72
-9 301 -8 368 1 189 28 385 106 550 222 288 202 476 499 540 855 10 58 14 311
5 370 -49 315 -170 553 -390 768 -169 165 -398 285 -645 337 -75 16 -344 33
-355 22z m348 -62 c515 -102 917 -521 996 -1040 14 -88 14 -326 1 -389 -31
-150 -67 -259 -117 -361 -83 -167 -230 -340 -385 -453 -136 -100 -347 -193
-490 -217 -21 -3 -60 -10 -87 -14 -75 -13 -262 -10 -356 5 -350 55 -665 262
-862 564 -133 204 -200 446 -193 700 4 195 38 343 116 510 169 360 520 631
904 697 17 3 50 9 75 13 72 12 308 3 398 -15z"/>
<path d="M1208 2515 c-1 -1 -25 -5 -53 -8 -114 -14 -270 -64 -383 -124 -272
-144 -479 -385 -580 -678 -72 -210 -79 -470 -18 -703 35 -134 136 -326 232
-442 178 -214 482 -384 743 -417 73 -10 282 -10 348 0 188 25 390 111 549 231
379 287 549 769 438 1240 -64 272 -247 534 -488 697 -208 141 -426 207 -683
207 -55 0 -103 -1 -105 -3z"/>
</g>
</svg>
